<!DOCTYPE svg PUBLIC "-//W3C//DTD SVG 1.1//EN" "http://www.w3.org/Graphics/SVG/1.1/DTD/svg11.dtd">
<svg xmlns="http://www.w3.org/2000/svg" xmlns:xlink="http://www.w3.org/1999/xlink" width="251px" height="241px" version="1.1"><defs/><g transform="translate(0.5,0.5)"><rect x="9" y="1" width="240" height="50" rx="7.5" ry="7.5" fill="#ffffff" stroke="#000000" stroke-width="3" pointer-events="none"/><rect x="19" y="51" width="220" height="20" fill="#f5f5f5" stroke="#666666" stroke-width="2" pointer-events="none"/><rect x="19" y="71" width="220" height="20" fill="#f5f5f5" stroke="#666666" stroke-width="2" pointer-events="none"/><rect x="19" y="91" width="220" height="20" fill="#f5f5f5" stroke="#666666" stroke-width="2" pointer-events="none"/><rect x="19" y="111" width="220" height="20" fill="#f5f5f5" stroke="#666666" stroke-width="2" pointer-events="none"/><rect x="19" y="131" width="220" height="20" fill="#f5f5f5" stroke="#666666" stroke-width="2" pointer-events="none"/><rect x="19" y="151" width="220" height="20" fill="#f5f5f5" stroke="#666666" stroke-width="2" pointer-events="none"/><rect x="19" y="171" width="220" height="20" fill="#f5f5f5" stroke="#666666" stroke-width="2" pointer-events="none"/><rect x="19" y="191" width="220" height="20" fill="#f5f5f5" stroke="#666666" stroke-width="2" pointer-events="none"/><rect x="19" y="211" width="220" height="20" fill="#f5f5f5" stroke="#666666" stroke-width="2" pointer-events="none"/><rect x="19" y="51" width="220" height="180" fill="none" stroke="#666666" stroke-width="3" pointer-events="none"/><path d="M 8 51 L 8 222.76" fill="none" stroke="#000000" stroke-width="2" stroke-miterlimit="10" pointer-events="none"/><path d="M 8 228.76 L 4 220.76 L 8 222.76 L 12 220.76 Z" fill="#000000" stroke="#000000" stroke-width="2" stroke-miterlimit="10" pointer-events="none"/></g></svg>